<svg xmlns="http://www.w3.org/2000/svg" xmlns:xlink="http://www.w3.org/1999/xlink" id="Layer_1" x="0" y="0" version="1.1" viewBox="0 0 128.4 27.9" xml:space="preserve" style="enable-background:new 0 0 128.4 27.9"><style type="text/css">.st0{fill:#fff}</style><rect width="2" height="7.9" x="15" y="17.9" class="st0"/><path d="M33,20.2c-0.1,0-0.7-0.4-1.7-0.4c-1.3,0-2.2,0.9-2.2,2.1c0,1.2,0.9,2.1,2.2,2.1c0.9,0,1.6-0.4,1.7-0.4v2.1	c-0.3,0.1-0.9,0.3-1.8,0.3c-2.2,0-4.2-1.5-4.2-4.1c0-2.4,1.8-4.1,4.2-4.1c0.9,0,1.6,0.2,1.8,0.3V20.2z" class="st0"/><path d="M12.2,20.2c-0.1,0-0.7-0.4-1.7-0.4c-1.3,0-2.2,0.9-2.2,2.1c0,1.2,0.9,2.1,2.2,2.1c0.9,0,1.6-0.4,1.7-0.4v2.1	C12,25.8,11.3,26,10.4,26c-2.2,0-4.2-1.5-4.2-4.1c0-2.4,1.8-4.1,4.2-4.1c0.9,0,1.6,0.2,1.8,0.3V20.2z" class="st0"/><path d="M43.4,21.9c0,2.3-1.7,4.1-4.2,4.1c-2.4,0-4.2-1.8-4.2-4.1c0-2.3,1.7-4.1,4.2-4.1C41.7,17.8,43.4,19.6,43.4,21.9 M39.3,19.8c-1.2,0-2.1,0.9-2.1,2.1c0,1.2,0.9,2.1,2.1,2.1c1.2,0,2.1-0.9,2.1-2.1C41.3,20.7,40.4,19.8,39.3,19.8" class="st0"/><path d="M24.5,19.7c0,0-0.9-0.2-1.6-0.2c-0.8,0-1.2,0.3-1.2,0.6c0,0.5,0.6,0.6,0.9,0.8l0.6,0.2c1.3,0.4,1.9,1.3,1.9,2.3	c0,2-1.7,2.6-3.3,2.6c-1.1,0-2-0.2-2.1-0.2v-1.8c0.2,0,1,0.3,1.9,0.3c1,0,1.4-0.3,1.4-0.7c0-0.4-0.4-0.6-0.9-0.8	c-0.1,0-0.3-0.1-0.4-0.1c-1.1-0.4-2-1-2-2.3c0-1.5,1.1-2.5,2.9-2.5c1,0,1.9,0.2,1.9,0.2V19.7z" class="st0"/><path d="M4.1,9.5c0-0.5-0.4-1-1-1c-0.5,0-1,0.4-1,1v2.1c0,0.5,0.4,1,1,1c0.5,0,1-0.4,1-1V9.5z" class="st0"/><path d="M9.5,6.8c0-0.5-0.4-1-1-1c-0.5,0-1,0.4-1,1v4.8c0,0.5,0.4,1,1,1c0.5,0,1-0.4,1-1V6.8z" class="st0"/><path d="M14.9,3c0-0.5-0.4-1-1-1c-0.5,0-1,0.4-1,1v10.5c0,0.5,0.4,1,1,1c0.5,0,1-0.4,1-1V3z" class="st0"/><path d="M20.4,6.8c0-0.5-0.4-1-1-1c-0.5,0-1,0.4-1,1v4.8c0,0.5,0.4,1,1,1c0.5,0,1-0.4,1-1V6.8z" class="st0"/><path d="M25.8,9.5c0-0.5-0.4-1-1-1c-0.5,0-1,0.4-1,1v2.1c0,0.5,0.4,1,1,1c0.5,0,1-0.4,1-1V9.5z" class="st0"/><path d="M31.2,6.8c0-0.5-0.4-1-1-1c-0.5,0-1,0.4-1,1v4.8c0,0.5,0.4,1,1,1c0.5,0,1-0.4,1-1V6.8z" class="st0"/><path d="M36.7,3c0-0.5-0.4-1-1-1c-0.5,0-1,0.4-1,1v10.5c0,0.5,0.4,1,1,1c0.5,0,1-0.4,1-1V3z" class="st0"/><path d="M42.1,6.8c0-0.5-0.4-1-1-1c-0.5,0-1,0.4-1,1v4.8c0,0.5,0.4,1,1,1c0.6,0,1-0.4,1-1V6.8z" class="st0"/><path d="M47.5,9.5c0-0.5-0.4-1-1-1c-0.5,0-1,0.4-1,1v2.1c0,0.5,0.4,1,1,1c0.5,0,1-0.4,1-1V9.5z" class="st0"/><polygon points="68.2 25.8 62.1 10.7 62.1 25.8 60.8 25.8 60.8 8.9 62.7 8.9 68.9 24.4 74.8 8.9 76.7 8.9 76.7 25.8 75.4 25.8 75.4 10.8 69.6 25.8" class="st0"/><path d="M80.7,19h8.5c-0.2-3.1-1.9-4.7-4.2-4.7C82.7,14.3,80.9,15.9,80.7,19 M90.3,22.5c-0.6,2.2-2.5,3.7-5.1,3.7	c-3.3,0-5.8-2.3-5.8-6.5s2.4-6.5,5.6-6.5c3.1,0,5.5,2.1,5.5,6.8h-9.8c0.1,3.5,2.1,5.1,4.5,5.1c1.8,0,3.2-1,3.7-2.6H90.3z" class="st0"/><path d="M93.4,25.8V13.6h1l0.2,2.3c0.7-1.9,1.9-2.7,3.4-2.7c0.5,0,1,0.1,1.3,0.2v1.2c-0.4-0.1-0.8-0.2-1.3-0.2	c-1.8,0-3.3,1.7-3.3,4.7v6.7H93.4z" class="st0"/><path d="M109,21.5v-2.3l-3.3,0.6c-2.9,0.5-3.8,1.4-3.8,2.9c0,1.6,1.3,2.5,3.1,2.5C107,25.1,109,23.6,109,21.5 M101,16.8	c0.2-2.1,2-3.5,4.7-3.5c2.7,0,4.5,1.5,4.5,4v8.5h-1l-0.2-2c-0.8,1.3-2.1,2.4-4.3,2.4c-2.4,0-4.1-1.3-4.1-3.5c0-2.1,1.3-3.4,4.7-3.9	l3.7-0.6v-1.1c0-1.8-1.2-2.8-3.3-2.8c-1.9,0-3.2,1-3.4,2.5H101z" class="st0"/><polygon points="113.5 25.8 113.5 8.9 114.7 8.9 114.7 18.6 120.6 13.6 122.3 13.6 116 19 123.1 25.8 121.4 25.8 114.7 19.4 114.7 25.8" class="st0"/><path d="M124.8,13.6h1.3v12.2h-1.3V13.6z M124.7,8.9h1.5v1.7h-1.5V8.9z" class="st0"/></svg>